<?xml version="1.0" encoding="UTF-8"?>
<svg width="32px" height="32px" viewBox="0 0 32 32" version="1.1" xmlns="http://www.w3.org/2000/svg" xmlns:xlink="http://www.w3.org/1999/xlink">
    <title>account-circle-line</title>
    <g id="页面-1" stroke="none" stroke-width="1" fill="none" fill-rule="evenodd">
        <g id="02-explore" transform="translate(-1216.000000, -24.000000)">
            <g id="account-circle-line" transform="translate(1216.000000, 24.000000)">
                <polygon id="路径" points="0 0 32 0 32 32 0 32"></polygon>
                <path d="M16,29.3333333 C8.636,29.3333333 2.66666667,23.364 2.66666667,16 C2.66666667,8.636 8.636,2.66666667 16,2.66666667 C23.364,2.66666667 29.3333333,8.636 29.3333333,16 C29.3333333,23.364 23.364,29.3333333 16,29.3333333 Z M9.35066667,24.3413333 C11.2380646,25.8502634 13.5835716,26.6705089 16,26.6666801 C18.6266667,26.6666801 21.0306667,25.7173333 22.8893333,24.144 C21.1349554,22.3438839 18.7269462,21.3300865 16.2133333,21.3333256 C13.605396,21.3303251 11.1158149,22.4215423 9.35066667,24.3413333 L9.35066667,24.3413333 Z M7.488,22.4266667 C9.75296495,20.0229763 12.9106414,18.6622417 16.2133333,18.6666667 C19.3954514,18.6625261 22.448089,19.9263814 24.696,22.1786667 C27.8642442,17.7195558 27.1458872,11.5865381 23.0329493,7.98026816 C18.9200114,4.37399817 12.7457148,4.46345993 8.73898682,8.18737888 C4.73225885,11.9112978 4.19189339,18.0625536 7.488,22.428 L7.488,22.4266667 Z M16,17.3333333 C13.0544813,17.3333333 10.6666667,14.9455187 10.6666667,12 C10.6666667,9.05448133 13.0544813,6.66666667 16,6.66666667 C18.9455187,6.66666667 21.3333333,9.05448133 21.3333333,12 C21.3333333,14.9455187 18.9455187,17.3333333 16,17.3333333 Z M16,14.6666667 C17.4727593,14.6666667 18.6666667,13.4727593 18.6666667,12 C18.6666667,10.5272407 17.4727593,9.33333333 16,9.33333333 C14.5272407,9.33333333 13.3333333,10.5272407 13.3333333,12 C13.3333333,13.4727593 14.5272407,14.6666667 16,14.6666667 Z" id="形状" fill="#FFFFFF" fill-rule="nonzero"></path>
            </g>
        </g>
    </g>
</svg>