<?xml version="1.0" encoding="UTF-8"?>
<svg width="24px" height="24px" viewBox="0 0 24 24" version="1.1" xmlns="http://www.w3.org/2000/svg" xmlns:xlink="http://www.w3.org/1999/xlink">
    <title>facebook-fill</title>
    <g id="页面-1" stroke="none" stroke-width="1" fill="none" fill-rule="evenodd">
        <g id="03-单个NFT" transform="translate(-534.000000, -499.000000)">
            <g id="facebook-fill" transform="translate(534.000000, 499.000000)">
                <polygon id="路径" points="0 0 24 0 24 24 0 24"></polygon>
                <path d="M14,13.5 L16.5,13.5 L17.5,9.5 L14,9.5 L14,7.5 C14,6.47 14,5.5 16,5.5 L17.5,5.5 L17.5,2.14 C17.174,2.097 15.943,2 14.643,2 C11.928,2 10,3.657 10,6.7 L10,9.5 L7,9.5 L7,13.5 L10,13.5 L10,22 L14,22 L14,13.5 Z" id="路径" fill="#D9D9D9" fill-rule="nonzero"></path>
            </g>
        </g>
    </g>
</svg>