<?xml version="1.0" encoding="UTF-8"?>
<svg width="34px" height="34px" viewBox="0 0 34 34" version="1.1" xmlns="http://www.w3.org/2000/svg" xmlns:xlink="http://www.w3.org/1999/xlink">
    <title>编组 3</title>
    <g id="控件" stroke="none" stroke-width="1" fill="none" fill-rule="evenodd">
        <g id="Header" transform="translate(-1277.000000, 1.000000)">
            <g id="编组-3" transform="translate(1278.000000, 0.000000)">
                <g id="Twitter" stroke="#FFFFFF" stroke-opacity="0.4">
                    <circle id="Stroke" cx="16" cy="16" r="16"></circle>
                </g>
                <g id="facebook-fill" transform="translate(6.000000, 6.000000)">
                    <polygon id="路径" points="0 0 20 0 20 20 0 20"></polygon>
                    <path d="M11.6666667,11.25 L13.75,11.25 L14.5833333,7.91666667 L11.6666667,7.91666667 L11.6666667,6.25 C11.6666667,5.39166667 11.6666667,4.58333333 13.3333333,4.58333333 L14.5833333,4.58333333 L14.5833333,1.78333333 C14.3116667,1.7475 13.2858333,1.66666667 12.2025,1.66666667 C9.94,1.66666667 8.33333333,3.0475 8.33333333,5.58333333 L8.33333333,7.91666667 L5.83333333,7.91666667 L5.83333333,11.25 L8.33333333,11.25 L8.33333333,18.3333333 L11.6666667,18.3333333 L11.6666667,11.25 Z" id="路径" fill="#FFFFFF" fill-rule="nonzero"></path>
                </g>
            </g>
        </g>
    </g>
</svg>