<?xml version="1.0" encoding="UTF-8"?>
<svg width="34px" height="34px" viewBox="0 0 34 34" version="1.1" xmlns="http://www.w3.org/2000/svg" xmlns:xlink="http://www.w3.org/1999/xlink">
    <title>编组 2</title>
    <g id="控件" stroke="none" stroke-width="1" fill="none" fill-rule="evenodd">
        <g id="Header" transform="translate(-1227.000000, 1.000000)">
            <g id="编组-2" transform="translate(1228.000000, 0.000000)">
                <g id="Facebook" stroke="#FFFFFF" stroke-opacity="0.4">
                    <circle id="Stroke" cx="16" cy="16" r="16"></circle>
                </g>
                <g id="github-fill" transform="translate(6.000000, 6.000000)">
                    <polygon id="路径" points="0 0 20 0 20 20 0 20"></polygon>
                    <path d="M10,1.66666667 C5.39583333,1.66666667 1.66666544,5.39583333 1.66666544,10 C1.66472819,13.5878404 3.96075125,16.7736648 7.365,17.9066667 C7.78166667,17.9791667 7.9375,17.7291667 7.9375,17.51 C7.9375,17.3125 7.92666667,16.6566667 7.92666667,15.9583333 C5.83333333,16.3441667 5.29166667,15.4483333 5.125,14.9791667 C5.03083333,14.7391667 4.625,14 4.27083333,13.8016667 C3.97916667,13.6458333 3.5625,13.26 4.26,13.25 C4.91666667,13.2391667 5.385,13.8541667 5.54166667,14.1041667 C6.29166667,15.3641667 7.49,15.01 7.96833333,14.7916667 C8.04166667,14.25 8.26,13.8858333 8.5,13.6775 C6.64583333,13.4691667 4.70833333,12.75 4.70833333,9.5625 C4.70833333,8.65583333 5.03083333,7.90666667 5.5625,7.3225 C5.47916667,7.11416667 5.1875,6.26 5.64583333,5.11416667 C5.64583333,5.11416667 6.34333333,4.89583333 7.9375,5.96916667 C8.61588573,5.78088392 9.31680515,5.68611962 10.0208333,5.6875 C10.7291667,5.6875 11.4375,5.78083333 12.1041667,5.96833333 C13.6975,4.885 14.3958333,5.115 14.3958333,5.115 C14.8541667,6.26083333 14.5625,7.115 14.4791667,7.32333333 C15.01,7.90666667 15.3333333,8.64583333 15.3333333,9.5625 C15.3333333,12.7608333 13.3858333,13.4691667 11.5316667,13.6775 C11.8333333,13.9375 12.0941667,14.4375 12.0941667,15.2191667 C12.0941667,16.3333333 12.0833333,17.2291667 12.0833333,17.5108333 C12.0833333,17.7291667 12.24,17.9891667 12.6566667,17.9058333 C16.0485284,16.7606433 18.3323638,13.57997 18.3333333,10 C18.3333333,5.39583333 14.6041667,1.66666667 10,1.66666667 Z" id="路径" fill="#FFFFFF" fill-rule="nonzero"></path>
                </g>
            </g>
        </g>
    </g>
</svg>