<?xml version="1.0" encoding="UTF-8"?>
<svg width="16px" height="16px" viewBox="0 0 16 16" version="1.1" xmlns="http://www.w3.org/2000/svg" xmlns:xlink="http://www.w3.org/1999/xlink">
    <title>star-smile-fill备份 3</title>
    <g id="页面-1" stroke="none" stroke-width="1" fill="none" fill-rule="evenodd">
        <g id="02-explore" transform="translate(-1244.000000, -508.000000)">
            <g id="star-smile-fill备份-3" transform="translate(1244.000000, 508.000000)">
                <polygon id="路径" points="0 0 16 0 16 16 0 16"></polygon>
                <path d="M8,0.333333333 L10.8173333,4.45533333 L15.6086667,5.86133333 L12.5586667,9.81466667 L12.702,14.8053333 L8,13.1266667 L3.298,14.8053333 L3.44133333,9.81466667 L0.391333333,5.86133333 L5.18266667,4.45533333 L8,0.333333333 Z M6.66666667,8 L5.33333333,8 C5.33333333,9.44679667 6.48696831,10.6296931 7.9333125,10.6658744 C9.37965669,10.7020556 10.5910161,9.57832151 10.6633333,8.13333333 L10.6666667,8 L9.33333333,8 C9.33655188,8.71921946 8.7687609,9.31137542 8.05004068,9.33836116 C7.33132046,9.3653469 6.72072345,8.81743579 6.67,8.1 L6.66666667,8 Z" id="形状" fill="#FFD500" fill-rule="nonzero"></path>
            </g>
        </g>
    </g>
</svg>