<?xml version="1.0" encoding="UTF-8"?>
<svg width="34px" height="34px" viewBox="0 0 34 34" version="1.1" xmlns="http://www.w3.org/2000/svg" xmlns:xlink="http://www.w3.org/1999/xlink">
    <title>编组</title>
    <g id="控件" stroke="none" stroke-width="1" fill="none" fill-rule="evenodd">
        <g id="Header" transform="translate(-1178.000000, 1.000000)">
            <g id="编组" transform="translate(1179.000000, 0.000000)">
                <circle id="Stroke" stroke-opacity="0.4" stroke="#FFFFFF" cx="16" cy="16" r="16"></circle>
                <g id="twitter-fill" transform="translate(6.000000, 6.000000)">
                    <polygon id="路径" points="0 0 20 0 20 20 0 20"></polygon>
                    <path d="M18.4683333,4.71333333 C17.8321308,4.99474477 17.1574667,5.17956115 16.4666667,5.26166667 C17.1947923,4.82619443 17.7397546,4.14084519 18,3.33333333 C17.3166667,3.74 16.5675,4.025 15.7866667,4.17916667 C14.7082079,3.02526626 12.9885646,2.74090753 11.5960552,3.48621077 C10.2035458,4.23151401 9.48635734,5.82012146 9.84833333,7.3575 C7.04585212,7.21703606 4.43478657,5.89332881 2.665,3.71583333 C2.35524176,4.24787526 2.19246262,4.85268894 2.19333333,5.46833333 C2.19333333,6.67666667 2.80833333,7.74416667 3.74333333,8.36916667 C3.19000734,8.35174685 2.64886033,8.20231713 2.165,7.93333333 L2.165,7.97666667 C2.16534433,9.63586316 3.33459535,11.0651026 4.96083333,11.3941667 C4.44717919,11.5333641 3.9085889,11.5538818 3.38583333,11.4541667 C3.84177248,12.8743192 5.15037619,13.8473148 6.64166667,13.875 C5.18161798,15.0216828 3.32561666,15.5409195 1.4825,15.3183333 C3.07558149,16.3428607 4.93008068,16.8867699 6.82416667,16.8850043 C13.235,16.8850043 16.7408333,11.5741667 16.7408333,6.96833333 C16.7408333,6.81833333 16.7366667,6.66666667 16.73,6.51833333 C17.4123868,6.02513972 18.0013323,5.41418283 18.4691667,4.71416667 L18.4683333,4.71333333 Z" id="路径" fill="#FFFFFF" fill-rule="nonzero"></path>
                </g>
            </g>
        </g>
    </g>
</svg>