<?xml version="1.0" encoding="UTF-8"?>
<svg width="32px" height="32px" viewBox="0 0 32 32" version="1.1" xmlns="http://www.w3.org/2000/svg" xmlns:xlink="http://www.w3.org/1999/xlink">
    <title>wallet-line</title>
    <g id="页面-1" stroke="none" stroke-width="1" fill="none" fill-rule="evenodd">
        <g id="02-explore" transform="translate(-1288.000000, -24.000000)">
            <g id="wallet-line" transform="translate(1288.000000, 24.000000)">
                <polygon id="路径" points="0 0 32 0 32 32 0 32"></polygon>
                <path d="M24,9.33333333 L28,9.33333333 C28.7363797,9.33333333 29.3333333,9.930287 29.3333333,10.6666667 L29.3333333,26.6666667 C29.3333333,27.4030463 28.7363797,28 28,28 L4,28 C3.26362033,28 2.66666667,27.4030463 2.66666667,26.6666667 L2.66666667,5.33333333 C2.66666667,4.59695367 3.26362033,4 4,4 L24,4 L24,9.33333333 Z M5.33333333,12 L5.33333333,25.3333333 L26.6666667,25.3333333 L26.6666667,12 L5.33333333,12 Z M5.33333333,6.66666667 L5.33333333,9.33333333 L21.3333333,9.33333333 L21.3333333,6.66666667 L5.33333333,6.66666667 Z M20,17.3333333 L24,17.3333333 L24,20 L20,20 L20,17.3333333 Z" id="形状" fill="#FFFFFF" fill-rule="nonzero"></path>
            </g>
        </g>
    </g>
</svg>